<?xml version="1.0" encoding="UTF-8"?>
<svg version="1.1" xmlns="http://www.w3.org/2000/svg" width="502" height="454">
<path d="M0 0 C15.09242758 5.88224633 28.5304178 15.81001183 41.875 24.8125 C43.6728069 26.01943181 45.47098279 27.22581416 47.26953125 28.43164062 C50.80803475 30.80483514 54.34425849 33.18136986 57.87890625 35.56030273 C62.78042749 38.85667081 67.69786407 42.12872585 72.6171875 45.3984375 C79.21817414 49.79057159 85.76077329 54.25637658 92.25 58.8125 C99.86241555 64.13356373 107.50441006 69.40651572 115.1875 74.625 C129.40811274 84.29476363 143.49344196 94.14296119 157.4140625 104.23999023 C163.12384501 108.37895094 168.8707399 112.46245373 174.64135742 116.51611328 C175.92487465 117.41827542 177.19280617 118.34297808 178.44503784 119.28808594 C181.05759283 121.13586884 181.05759283 121.13586884 184.43077087 122.58175659 C189.50343887 125.12691528 193.9636786 127.89027682 195.83077621 133.49293709 C197.22393502 141.2427602 196.9866526 149.12052583 196.89453125 156.96484375 C196.90651478 159.5249696 196.922504 162.08507955 196.94230652 164.64515686 C196.96740895 170.00165155 196.94290056 175.35476123 196.88012695 180.71069336 C196.80880162 186.87750325 196.84222014 193.03723885 196.92961389 199.20368284 C197.01077147 205.16721654 197.00684294 211.12857565 196.96829796 217.09262276 C196.96083815 219.61508152 196.97571632 222.13771363 197.01386452 224.65989494 C197.24726698 243.80028164 197.24726698 243.80028164 193.50739288 249.12521362 C190.0371911 252.60384398 186.1398872 255.00049961 181.74047947 257.1382761 C179.49541348 258.24982442 177.50361154 259.63591763 175.4765625 261.1015625 C174.19486383 261.94598915 172.9110003 262.78713899 171.625 263.625 C170.09692228 264.6330028 168.56962465 265.64218884 167.04296875 266.65234375 C166.23649902 267.18585449 165.4300293 267.71936523 164.59912109 268.26904297 C159.687942 271.53977937 154.81423759 274.86572434 149.9375 278.1875 C148.34796509 279.2698291 148.34796509 279.2698291 146.72631836 280.37402344 C144.55891991 281.85018517 142.39168446 283.32658626 140.22460938 284.80322266 C130.82126614 291.20928583 121.41021591 297.60403873 112 304 C110.95134766 304.71285156 109.90269531 305.42570312 108.82226562 306.16015625 C80.15402916 325.64410055 51.46861847 345.10637343 22.58984375 364.27734375 C19.08821893 366.60287743 15.60007236 368.94565981 12.12890625 371.31640625 C11.06071655 372.04234985 11.06071655 372.04234985 9.97094727 372.78295898 C8.71616798 373.63735286 7.46493081 374.49698931 6.21850586 375.36352539 C3.5470253 377.17711975 2.3116705 378 -1 378 C-2.14982853 374.5505144 -2.13406251 371.8710394 -2.14526367 368.23144531 C-2.14862228 367.54618774 -2.1519809 366.86093018 -2.15544128 366.15490723 C-2.16496613 363.87929478 -2.1668971 361.60375619 -2.16796875 359.328125 C-2.17118718 357.7284136 -2.17455168 356.1287025 -2.17805481 354.5289917 C-2.18405471 351.15962039 -2.18589452 347.79027472 -2.18530273 344.42089844 C-2.18522233 341.00938515 -2.19201993 337.59800858 -2.20581055 334.18652344 C-2.4601713 270.37208749 -2.4601713 270.37208749 8.01293945 258.95678711 C11.09520642 255.92147936 14.44702943 253.45399766 18 251 C19.16776978 250.17616821 19.16776978 250.17616821 20.35913086 249.33569336 C22.03669991 248.15507174 23.71771434 246.97933302 25.40185547 245.80810547 C27.98582299 244.00986609 30.55815934 242.19598232 33.12890625 240.37890625 C43.83370895 232.84408623 54.67421889 225.53636546 65.58682251 218.3079834 C86.89715174 205.03304885 86.89715174 205.03304885 106 189 C104.67093423 185.94633261 103.37546025 184.21774066 100.71875 182.22265625 C100.05117676 181.71605469 99.38360352 181.20945313 98.69580078 180.6875 C97.97118652 180.15125 97.24657227 179.615 96.5 179.0625 C95.74315918 178.49402344 94.98631836 177.92554688 94.20654297 177.33984375 C91.8123841 175.54878607 89.40817659 173.77215594 87 172 C86.25524414 171.45069824 85.51048828 170.90139648 84.74316406 170.33544922 C74.20962052 162.59047115 63.4818543 155.14372453 52.66210938 147.80566406 C49.77820478 145.84956003 46.89673399 143.88990665 44.015625 141.9296875 C39.79373542 139.05746407 35.57100269 136.18648701 31.34765625 133.31640625 C24.16478901 128.43382598 16.98913819 123.54068589 9.81518555 118.64501953 C8.96093994 118.06220215 8.10669434 117.47938477 7.2265625 116.87890625 C6.47971191 116.3691626 5.73286133 115.85941895 4.96337891 115.33422852 C3.31488826 114.21398463 1.65836365 113.10557577 0 112 C-0.36914349 110.00475883 -0.36914349 110.00475883 -0.36076355 107.50753784 C-0.36488754 106.56240326 -0.36901154 105.61726868 -0.3732605 104.64349365 C-0.36247467 103.60340149 -0.35168884 102.56330933 -0.34057617 101.49169922 C-0.34101425 100.39900726 -0.34145233 99.30631531 -0.34190369 98.18051147 C-0.33980731 94.55505743 -0.31643584 90.93006114 -0.29296875 87.3046875 C-0.28737583 84.79648084 -0.2831043 82.28827092 -0.28010559 79.78005981 C-0.26980671 73.84433569 -0.24614291 67.90875937 -0.21605712 61.97311127 C-0.17926528 54.55371813 -0.16312895 47.13430471 -0.14648438 39.71484375 C-0.11427761 26.47647844 -0.06362601 13.23824966 0 0 Z " fill="#731F1F" transform="translate(305,0)"/>
<path d="M0 0 C-0.13507045 15.11792146 -0.33251346 30.23414621 -0.60352039 45.35021973 C-0.72792508 52.36967427 -0.83217066 59.38833262 -0.88842773 66.40869141 C-0.94279243 73.18575014 -1.05403457 79.95998664 -1.19980431 86.73568726 C-1.24611628 89.31893169 -1.27345224 91.9025892 -1.28138161 94.48623657 C-1.36611724 115.83473355 -1.36611724 115.83473355 -5.40194702 120.29389954 C-8.21991927 122.37433894 -10.76739645 123.68873035 -14 125 C-15.54513452 126.02010163 -17.07112884 127.07076317 -18.5625 128.16796875 C-20.04056009 129.17610347 -21.51975216 130.18258031 -23 131.1875 C-24.65755516 132.31770382 -26.31510716 133.44791228 -27.97265625 134.578125 C-29.64839819 135.71880775 -31.324179 136.85943341 -33 138 C-39.34222964 142.32042566 -45.67613176 146.65274038 -52 151 C-52.80550293 151.55268555 -53.61100586 152.10537109 -54.44091797 152.67480469 C-83.46550629 169.88149937 -83.46550629 169.88149937 -105 194 C-96.1124499 202.69241427 -86.50370837 210.01651113 -76.41845703 217.2578125 C-74.14212133 218.89761985 -71.87945797 220.55431456 -69.62109375 222.21875 C-60.13793804 229.18203425 -50.43522904 235.7661682 -40.62255859 242.25585938 C-34.04374246 246.61285917 -27.52744115 251.00426929 -21.265625 255.80859375 C-18.63127576 257.57638074 -16.75622932 258.5395995 -13.859375 259.59765625 C-9.18253392 261.49589714 -5.62220445 263.56600071 -3 268 C-0.78513103 276.30503482 -1.52459059 285.31172767 -1.78237915 293.83532715 C-2.01430277 301.69732427 -2.00193006 309.54933893 -1.9393177 317.41319656 C-1.88644465 324.1295486 -1.84993399 330.84604659 -1.8125 337.5625 C-1.80828663 338.30207947 -1.80407326 339.04165894 -1.79973221 339.8036499 C-1.77669806 344.13054224 -1.76549848 348.45720881 -1.76985931 352.78416252 C-1.76954106 354.75566287 -1.75898713 356.7271533 -1.74810791 358.69862366 C-1.76528163 365.70991332 -2.26964106 372.19434784 -4 379 C-7.37280524 378.37735187 -9.81263688 377.75054865 -12.6796875 375.84765625 C-13.35281982 375.40647461 -14.02595215 374.96529297 -14.71948242 374.51074219 C-15.43080322 374.03282227 -16.14212402 373.55490234 -16.875 373.0625 C-17.62821533 372.56524414 -18.38143066 372.06798828 -19.1574707 371.55566406 C-21.44312917 370.04422286 -23.72165469 368.52243389 -26 367 C-27.22470069 366.19055873 -28.44992146 365.38190354 -29.67578125 364.57421875 C-40.87036477 357.17860344 -51.92761516 349.57661209 -63 342 C-63.73395996 341.49823242 -64.46791992 340.99646484 -65.22412109 340.47949219 C-73.06032249 335.12015387 -80.85513279 329.7050534 -88.625 324.25 C-98.33989029 317.43413271 -108.13196265 310.73622718 -117.95117188 304.07177734 C-120.62958196 302.25171104 -123.30533253 300.42781014 -125.97984314 298.60202026 C-160.05836234 274.19758049 -160.05836234 274.19758049 -196 253 C-196.51600003 237.4845972 -196.90285144 221.96984184 -197.13986778 206.44785976 C-197.25290177 199.23843081 -197.40666253 192.03435662 -197.65966797 184.82836914 C-197.88033738 178.54031384 -198.02117914 172.25613437 -198.06994689 165.964315 C-198.09845596 162.63385356 -198.17596476 159.32315664 -198.32606125 155.99465752 C-199.19828616 135.838011 -199.19828616 135.838011 -193.8706131 129.4446907 C-188.65765089 124.85607911 -182.87980014 121.54069807 -176.70399857 118.42032051 C-172.77220225 116.35507868 -169.22244365 113.84069453 -165.625 111.25 C-164.34818316 110.36714065 -163.0697689 109.48658249 -161.7890625 108.609375 C-161.16676758 108.18076172 -160.54447266 107.75214844 -159.90332031 107.31054688 C-156.60353044 105.03844939 -153.30163099 102.76942087 -150 100.5 C-148.66665718 99.58334714 -147.33332383 98.66668049 -146 97.75 C-142 95 -142 95 -138 92.25 C-137.3402417 91.79641113 -136.6804834 91.34282227 -136.00073242 90.87548828 C-134.66497667 89.95716639 -133.32920188 89.0388722 -131.9934082 88.12060547 C-128.69698255 85.85448843 -125.40086973 83.58791941 -122.10546875 81.3203125 C-112.55566656 74.74997216 -102.99190961 68.20019958 -93.42333984 61.65722656 C-90.23871931 59.47939016 -87.05462615 57.30078358 -83.87060547 55.12207031 C-82.28245332 54.03538824 -80.69423654 52.9488006 -79.10595703 51.86230469 C-75.25831075 49.23015949 -71.41139398 46.59696499 -67.56640625 43.9609375 C-49.95556944 31.89136694 -32.31730308 19.85711741 -14.5625 8 C-13.85407959 7.52618896 -13.14565918 7.05237793 -12.41577148 6.56420898 C-2.55421509 0 -2.55421509 0 0 0 Z " fill="#601A1A" transform="translate(199,64)"/>
<path d="M0 0 C0.83015625 0.41507812 1.6603125 0.83015625 2.515625 1.2578125 C3.0943335 1.54696533 3.67304199 1.83611816 4.26928711 2.1340332 C5.61710369 2.80835682 6.96424704 3.48402739 8.31079102 4.16088867 C12.64655895 6.33692871 16.99306254 8.48862875 21.35452271 10.61279297 C23.91058496 11.85943314 26.46260875 13.11421765 29.01428223 14.36981201 C30.29711441 14.99860741 31.58171293 15.62381188 32.86804199 16.24542236 C34.69647567 17.12963015 36.51830679 18.02745156 38.33984375 18.92578125 C39.40581787 19.44567627 40.47179199 19.96557129 41.57006836 20.5012207 C44 22 44 22 45 25 C43.85777127 27.73725671 42.64756789 30.30716279 41.29296875 32.9375 C40.89354568 33.73164307 40.49412262 34.52578613 40.08259583 35.34399414 C38.79349987 37.90080439 37.49056426 40.45028536 36.1875 43 C35.35133666 44.65580748 34.51604118 46.31205351 33.68164062 47.96875 C29.53019937 56.18844784 25.2966776 64.3615721 20.98828125 72.5 C15.82755161 82.252218 10.90190898 92.11576009 6 102 C0.70183849 112.68324597 -4.66178196 123.31756567 -10.24780273 133.85351562 C-14.98965769 142.82343956 -19.49265861 151.91063937 -24 161 C-25.66433979 164.35532932 -27.33139054 167.70929237 -29 171.0625 C-29.37390869 171.81861572 -29.74781738 172.57473145 -30.13305664 173.35375977 C-31.62863849 176.35912093 -33.13533272 179.20299908 -35 182 C-39.67070695 181.37509396 -43.5307648 179.43548336 -47.6796875 177.32421875 C-48.41067657 176.95778763 -49.14166565 176.59135651 -49.89480591 176.21382141 C-51.43763104 175.43905573 -52.97901759 174.66141953 -54.51904297 173.88110352 C-56.85729973 172.69646753 -59.19966168 171.52031227 -61.54296875 170.34570312 C-63.04712414 169.58903672 -64.55103831 168.83189058 -66.0546875 168.07421875 C-66.74658173 167.7261467 -67.43847595 167.37807465 -68.15133667 167.01945496 C-72.5141911 164.80646607 -76.77016494 162.45806298 -81 160 C-79.56591282 155.31354362 -77.64276779 151.00707213 -75.4375 146.64453125 C-75.08671387 145.94341721 -74.73592773 145.24230316 -74.37451172 144.51994324 C-73.62998874 143.03390967 -72.88352862 141.54884524 -72.13525391 140.06469727 C-71.02711825 137.8662991 -69.92511103 135.66492325 -68.82421875 133.46289062 C-64.98736954 125.808792 -61.06976592 118.20297968 -57.0625 110.63671875 C-51.87619502 100.83917274 -46.92502198 90.93084509 -42 81 C-36.7008956 70.31485276 -31.33570566 59.67923009 -25.74766541 49.14195251 C-22.74280965 43.45752612 -19.83259393 37.73127091 -16.97265625 31.97265625 C-16.56574554 31.15332611 -16.15883484 30.33399597 -15.73959351 29.48983765 C-14.08806738 26.1592812 -12.43983122 22.82711706 -10.79467773 19.4934082 C-9.56581986 17.00558152 -8.33204591 14.52024172 -7.09765625 12.03515625 C-6.72890884 11.28420181 -6.36016144 10.53324738 -5.98023987 9.75953674 C-4.23591884 6.25395364 -2.517836 3.03178093 0 0 Z " fill="#616161" transform="translate(275,121)"/>
</svg>
